<mxfile host="app.diagrams.net" modified="2021-06-27T16:01:25.203Z" agent="5.0 (Windows NT 10.0; Win64; x64) AppleWebKit/537.36 (KHTML, like Gecko) Chrome/91.0.4472.124 Safari/537.36" etag="WVmJVWYydfH_PFf1oqv9" version="14.8.0" type="github">
  <diagram id="kgpKYQtTHZ0yAKxKKP6v" name="Page-1">
    <mxGraphModel dx="1422" dy="762" grid="1" gridSize="10" guides="1" tooltips="1" connect="1" arrows="1" fold="1" page="1" pageScale="1" pageWidth="850" pageHeight="1100" math="0" shadow="0">
      <root>
        <mxCell id="0" />
        <mxCell id="1" parent="0" />
        <mxCell id="3nuBFxr9cyL0pnOWT2aG-1" value=":Арендодатель" style="shape=umlLifeline;perimeter=lifelinePerimeter;container=1;collapsible=0;recursiveResize=0;rounded=0;shadow=0;strokeWidth=1;" parent="1" vertex="1">
          <mxGeometry x="120" y="80" width="100" height="780" as="geometry" />
        </mxCell>
        <mxCell id="3nuBFxr9cyL0pnOWT2aG-2" value="" style="points=[];perimeter=orthogonalPerimeter;rounded=0;shadow=0;strokeWidth=1;" parent="3nuBFxr9cyL0pnOWT2aG-1" vertex="1">
          <mxGeometry x="45" y="70" width="10" height="190" as="geometry" />
        </mxCell>
        <mxCell id="FkLrA_r1JUW925ZRQbTF-35" value="" style="shape=umlDestroy;whiteSpace=wrap;html=1;strokeWidth=3;" parent="3nuBFxr9cyL0pnOWT2aG-1" vertex="1">
          <mxGeometry x="35" y="770" width="30" height="30" as="geometry" />
        </mxCell>
        <mxCell id="3nuBFxr9cyL0pnOWT2aG-5" value=":Товар" style="shape=umlLifeline;perimeter=lifelinePerimeter;container=1;collapsible=0;recursiveResize=0;rounded=0;shadow=0;strokeWidth=1;" parent="1" vertex="1">
          <mxGeometry x="300" y="80" width="100" height="290" as="geometry" />
        </mxCell>
        <mxCell id="FkLrA_r1JUW925ZRQbTF-28" value="" style="shape=umlDestroy;whiteSpace=wrap;html=1;strokeWidth=3;" parent="3nuBFxr9cyL0pnOWT2aG-5" vertex="1">
          <mxGeometry x="35" y="280" width="30" height="30" as="geometry" />
        </mxCell>
        <mxCell id="3nuBFxr9cyL0pnOWT2aG-8" value="создать объявление()" style="verticalAlign=bottom;endArrow=openThin;shadow=0;strokeWidth=1;endFill=0;entryX=0.083;entryY=0.009;entryDx=0;entryDy=0;entryPerimeter=0;" parent="1" source="3nuBFxr9cyL0pnOWT2aG-2" target="FkLrA_r1JUW925ZRQbTF-1" edge="1">
          <mxGeometry relative="1" as="geometry">
            <mxPoint x="275" y="160" as="sourcePoint" />
            <mxPoint x="349" y="159" as="targetPoint" />
          </mxGeometry>
        </mxCell>
        <mxCell id="FkLrA_r1JUW925ZRQbTF-1" value="" style="points=[];perimeter=orthogonalPerimeter;rounded=0;shadow=0;strokeWidth=1;" parent="1" vertex="1">
          <mxGeometry x="345" y="160" width="10" height="20" as="geometry" />
        </mxCell>
        <mxCell id="FkLrA_r1JUW925ZRQbTF-2" value=":Арендатор" style="shape=umlLifeline;perimeter=lifelinePerimeter;container=1;collapsible=0;recursiveResize=0;rounded=0;shadow=0;strokeWidth=1;" parent="1" vertex="1">
          <mxGeometry x="710" y="80" width="100" height="780" as="geometry" />
        </mxCell>
        <mxCell id="FkLrA_r1JUW925ZRQbTF-3" value="" style="points=[];perimeter=orthogonalPerimeter;rounded=0;shadow=0;strokeWidth=1;" parent="FkLrA_r1JUW925ZRQbTF-2" vertex="1">
          <mxGeometry x="45" y="40" width="10" height="190" as="geometry" />
        </mxCell>
        <mxCell id="FkLrA_r1JUW925ZRQbTF-4" value=":Оператор" style="shape=umlLifeline;perimeter=lifelinePerimeter;container=1;collapsible=0;recursiveResize=0;rounded=0;shadow=0;strokeWidth=1;" parent="1" vertex="1">
          <mxGeometry x="860" y="80" width="100" height="470" as="geometry" />
        </mxCell>
        <mxCell id="FkLrA_r1JUW925ZRQbTF-5" value="" style="points=[];perimeter=orthogonalPerimeter;rounded=0;shadow=0;strokeWidth=1;" parent="FkLrA_r1JUW925ZRQbTF-4" vertex="1">
          <mxGeometry x="45" y="80" width="10" height="360" as="geometry" />
        </mxCell>
        <mxCell id="FkLrA_r1JUW925ZRQbTF-29" value="" style="shape=umlDestroy;whiteSpace=wrap;html=1;strokeWidth=3;" parent="FkLrA_r1JUW925ZRQbTF-4" vertex="1">
          <mxGeometry x="35" y="460" width="30" height="30" as="geometry" />
        </mxCell>
        <mxCell id="FkLrA_r1JUW925ZRQbTF-6" value=":Курьер" style="shape=umlLifeline;perimeter=lifelinePerimeter;container=1;collapsible=0;recursiveResize=0;rounded=0;shadow=0;strokeWidth=1;" parent="1" vertex="1">
          <mxGeometry x="1070" y="80" width="100" height="780" as="geometry" />
        </mxCell>
        <mxCell id="FkLrA_r1JUW925ZRQbTF-7" value="" style="points=[];perimeter=orthogonalPerimeter;rounded=0;shadow=0;strokeWidth=1;" parent="FkLrA_r1JUW925ZRQbTF-6" vertex="1">
          <mxGeometry x="45" y="430" width="10" height="130" as="geometry" />
        </mxCell>
        <mxCell id="FkLrA_r1JUW925ZRQbTF-8" value=":Заказ" style="shape=umlLifeline;perimeter=lifelinePerimeter;container=1;collapsible=0;recursiveResize=0;rounded=0;shadow=0;strokeWidth=1;" parent="1" vertex="1">
          <mxGeometry x="550" y="270" width="100" height="590" as="geometry" />
        </mxCell>
        <mxCell id="FkLrA_r1JUW925ZRQbTF-9" value="" style="points=[];perimeter=orthogonalPerimeter;rounded=0;shadow=0;strokeWidth=1;" parent="FkLrA_r1JUW925ZRQbTF-8" vertex="1">
          <mxGeometry x="45" y="40" width="10" height="160" as="geometry" />
        </mxCell>
        <mxCell id="FkLrA_r1JUW925ZRQbTF-10" value=":Сайт проката" style="shape=umlLifeline;perimeter=lifelinePerimeter;container=1;collapsible=0;recursiveResize=0;rounded=0;shadow=0;strokeWidth=1;" parent="1" vertex="1">
          <mxGeometry x="450" y="80" width="100" height="780" as="geometry" />
        </mxCell>
        <mxCell id="FkLrA_r1JUW925ZRQbTF-11" value="" style="points=[];perimeter=orthogonalPerimeter;rounded=0;shadow=0;strokeWidth=1;" parent="FkLrA_r1JUW925ZRQbTF-10" vertex="1">
          <mxGeometry x="45" y="80" width="10" height="410" as="geometry" />
        </mxCell>
        <mxCell id="FkLrA_r1JUW925ZRQbTF-12" value="Загрузить объявление()" style="verticalAlign=bottom;endArrow=block;shadow=0;strokeWidth=1;" parent="1" source="3nuBFxr9cyL0pnOWT2aG-2" target="FkLrA_r1JUW925ZRQbTF-11" edge="1">
          <mxGeometry relative="1" as="geometry">
            <mxPoint x="425" y="220" as="sourcePoint" />
            <mxPoint x="245" y="220" as="targetPoint" />
            <Array as="points">
              <mxPoint x="335" y="200" />
            </Array>
          </mxGeometry>
        </mxCell>
        <mxCell id="FkLrA_r1JUW925ZRQbTF-13" value="Зайти на сайт()" style="verticalAlign=bottom;endArrow=block;shadow=0;strokeWidth=1;" parent="1" target="FkLrA_r1JUW925ZRQbTF-11" edge="1">
          <mxGeometry relative="1" as="geometry">
            <mxPoint x="753" y="160" as="sourcePoint" />
            <mxPoint x="510" y="169.58" as="targetPoint" />
            <Array as="points" />
          </mxGeometry>
        </mxCell>
        <mxCell id="FkLrA_r1JUW925ZRQbTF-14" value="" style="points=[];perimeter=orthogonalPerimeter;rounded=0;shadow=0;strokeWidth=1;" parent="1" vertex="1">
          <mxGeometry x="345" y="220" width="10" height="70" as="geometry" />
        </mxCell>
        <mxCell id="FkLrA_r1JUW925ZRQbTF-15" value="Выбрать товар()" style="verticalAlign=bottom;endArrow=block;shadow=0;strokeWidth=1;" parent="1" source="FkLrA_r1JUW925ZRQbTF-2" edge="1">
          <mxGeometry x="-0.3318" relative="1" as="geometry">
            <mxPoint x="695.4100000000002" y="220" as="sourcePoint" />
            <mxPoint x="350" y="220" as="targetPoint" />
            <Array as="points" />
            <mxPoint as="offset" />
          </mxGeometry>
        </mxCell>
        <mxCell id="FkLrA_r1JUW925ZRQbTF-16" value="Оформить заказ()" style="verticalAlign=bottom;endArrow=block;shadow=0;strokeWidth=1;" parent="1" edge="1">
          <mxGeometry relative="1" as="geometry">
            <mxPoint x="753" y="290" as="sourcePoint" />
            <mxPoint x="650" y="290" as="targetPoint" />
            <Array as="points" />
          </mxGeometry>
        </mxCell>
        <mxCell id="FkLrA_r1JUW925ZRQbTF-17" value="return" style="verticalAlign=bottom;endArrow=open;dashed=1;endSize=8;shadow=0;strokeWidth=1;" parent="1" edge="1">
          <mxGeometry relative="1" as="geometry">
            <mxPoint x="549" y="288" as="targetPoint" />
            <mxPoint x="355" y="288" as="sourcePoint" />
          </mxGeometry>
        </mxCell>
        <mxCell id="FkLrA_r1JUW925ZRQbTF-18" value="return" style="verticalAlign=bottom;endArrow=open;dashed=1;endSize=8;shadow=0;strokeWidth=1;entryX=0.5;entryY=0.667;entryDx=0;entryDy=0;entryPerimeter=0;" parent="1" target="FkLrA_r1JUW925ZRQbTF-5" edge="1">
          <mxGeometry relative="1" as="geometry">
            <mxPoint x="870" y="400" as="targetPoint" />
            <mxPoint x="610" y="400" as="sourcePoint" />
          </mxGeometry>
        </mxCell>
        <mxCell id="FkLrA_r1JUW925ZRQbTF-19" value="Обработать заказ()" style="verticalAlign=bottom;endArrow=block;shadow=0;strokeWidth=1;" parent="1" edge="1">
          <mxGeometry relative="1" as="geometry">
            <mxPoint x="905" y="450" as="sourcePoint" />
            <mxPoint x="600" y="450" as="targetPoint" />
            <Array as="points">
              <mxPoint x="820" y="450" />
            </Array>
          </mxGeometry>
        </mxCell>
        <mxCell id="FkLrA_r1JUW925ZRQbTF-22" value="[заказ верен]Передать информацию&#xa; о заказе()" style="verticalAlign=bottom;endArrow=block;shadow=0;strokeWidth=1;entryX=0;entryY=0.044;entryDx=0;entryDy=0;entryPerimeter=0;" parent="1" target="FkLrA_r1JUW925ZRQbTF-7" edge="1">
          <mxGeometry x="-0.0073" y="8" relative="1" as="geometry">
            <mxPoint x="916" y="516" as="sourcePoint" />
            <mxPoint x="1016" y="514" as="targetPoint" />
            <Array as="points" />
            <mxPoint as="offset" />
          </mxGeometry>
        </mxCell>
        <mxCell id="FkLrA_r1JUW925ZRQbTF-23" value="return" style="verticalAlign=bottom;endArrow=open;dashed=1;endSize=8;shadow=0;strokeWidth=1;" parent="1" edge="1">
          <mxGeometry relative="1" as="geometry">
            <mxPoint x="756" y="188" as="targetPoint" />
            <mxPoint x="503" y="189.17000000000002" as="sourcePoint" />
          </mxGeometry>
        </mxCell>
        <mxCell id="FkLrA_r1JUW925ZRQbTF-24" value="Забрать товар()" style="verticalAlign=bottom;endArrow=block;shadow=0;strokeWidth=1;exitX=0.083;exitY=0.724;exitDx=0;exitDy=0;exitPerimeter=0;" parent="1" source="FkLrA_r1JUW925ZRQbTF-7" edge="1">
          <mxGeometry relative="1" as="geometry">
            <mxPoint x="1110" y="600" as="sourcePoint" />
            <mxPoint x="176" y="605" as="targetPoint" />
            <Array as="points" />
          </mxGeometry>
        </mxCell>
        <mxCell id="FkLrA_r1JUW925ZRQbTF-25" value="" style="points=[];perimeter=orthogonalPerimeter;rounded=0;shadow=0;strokeWidth=1;" parent="1" vertex="1">
          <mxGeometry x="165" y="760" width="10" height="40" as="geometry" />
        </mxCell>
        <mxCell id="FkLrA_r1JUW925ZRQbTF-26" value="" style="points=[];perimeter=orthogonalPerimeter;rounded=0;shadow=0;strokeWidth=1;" parent="1" vertex="1">
          <mxGeometry x="755" y="630" width="10" height="100" as="geometry" />
        </mxCell>
        <mxCell id="FkLrA_r1JUW925ZRQbTF-27" value="[клиент может получить заказ]Доставить заказ()" style="verticalAlign=bottom;endArrow=block;shadow=0;strokeWidth=1;exitX=-0.083;exitY=1;exitDx=0;exitDy=0;exitPerimeter=0;entryX=0.917;entryY=0.065;entryDx=0;entryDy=0;entryPerimeter=0;" parent="1" source="FkLrA_r1JUW925ZRQbTF-7" target="FkLrA_r1JUW925ZRQbTF-26" edge="1">
          <mxGeometry relative="1" as="geometry">
            <mxPoint x="1060" y="640" as="sourcePoint" />
            <mxPoint x="770" y="640" as="targetPoint" />
            <Array as="points">
              <mxPoint x="980" y="640" />
            </Array>
          </mxGeometry>
        </mxCell>
        <mxCell id="FkLrA_r1JUW925ZRQbTF-30" value="" style="points=[];perimeter=orthogonalPerimeter;rounded=0;shadow=0;strokeWidth=1;" parent="1" vertex="1">
          <mxGeometry x="1115" y="710" width="10" height="60" as="geometry" />
        </mxCell>
        <mxCell id="FkLrA_r1JUW925ZRQbTF-32" value="[срок аренды истёк]Забрать заказ()" style="verticalAlign=bottom;endArrow=block;shadow=0;strokeWidth=1;entryX=1;entryY=0.954;entryDx=0;entryDy=0;entryPerimeter=0;" parent="1" source="FkLrA_r1JUW925ZRQbTF-6" target="FkLrA_r1JUW925ZRQbTF-26" edge="1">
          <mxGeometry x="0.0127" y="-12" relative="1" as="geometry">
            <mxPoint x="860" y="840" as="sourcePoint" />
            <mxPoint x="1110" y="810" as="targetPoint" />
            <Array as="points" />
            <mxPoint as="offset" />
          </mxGeometry>
        </mxCell>
        <mxCell id="FkLrA_r1JUW925ZRQbTF-33" value="[Вернуть товар()" style="verticalAlign=bottom;endArrow=block;shadow=0;strokeWidth=1;exitX=-0.4;exitY=0.867;exitDx=0;exitDy=0;exitPerimeter=0;entryX=1;entryY=-0.025;entryDx=0;entryDy=0;entryPerimeter=0;" parent="1" source="FkLrA_r1JUW925ZRQbTF-30" target="FkLrA_r1JUW925ZRQbTF-25" edge="1">
          <mxGeometry x="-0.0149" y="-2" relative="1" as="geometry">
            <mxPoint x="1115" y="850" as="sourcePoint" />
            <mxPoint x="177" y="850" as="targetPoint" />
            <Array as="points" />
            <mxPoint as="offset" />
          </mxGeometry>
        </mxCell>
        <mxCell id="FkLrA_r1JUW925ZRQbTF-34" value="" style="points=[];perimeter=orthogonalPerimeter;rounded=0;shadow=0;strokeWidth=1;" parent="1" vertex="1">
          <mxGeometry x="165" y="600" width="10" height="40" as="geometry" />
        </mxCell>
        <mxCell id="FkLrA_r1JUW925ZRQbTF-37" value="" style="shape=umlDestroy;whiteSpace=wrap;html=1;strokeWidth=3;" parent="1" vertex="1">
          <mxGeometry x="485" y="850" width="30" height="30" as="geometry" />
        </mxCell>
        <mxCell id="FkLrA_r1JUW925ZRQbTF-38" value="" style="shape=umlDestroy;whiteSpace=wrap;html=1;strokeWidth=3;" parent="1" vertex="1">
          <mxGeometry x="585" y="850" width="30" height="30" as="geometry" />
        </mxCell>
        <mxCell id="FkLrA_r1JUW925ZRQbTF-39" value="" style="shape=umlDestroy;whiteSpace=wrap;html=1;strokeWidth=3;" parent="1" vertex="1">
          <mxGeometry x="745" y="850" width="30" height="30" as="geometry" />
        </mxCell>
        <mxCell id="FkLrA_r1JUW925ZRQbTF-40" value="" style="shape=umlDestroy;whiteSpace=wrap;html=1;strokeWidth=3;" parent="1" vertex="1">
          <mxGeometry x="1105" y="850" width="30" height="30" as="geometry" />
        </mxCell>
        <mxCell id="HDKb4VqexMqRSyN7pOfg-1" value="" style="points=[];perimeter=orthogonalPerimeter;rounded=0;shadow=0;strokeWidth=1;" vertex="1" parent="1">
          <mxGeometry x="495" y="685" width="10" height="45" as="geometry" />
        </mxCell>
        <mxCell id="HDKb4VqexMqRSyN7pOfg-2" value="Продлить аренду()" style="verticalAlign=bottom;endArrow=block;shadow=0;strokeWidth=1;exitX=0.1;exitY=0.75;exitDx=0;exitDy=0;exitPerimeter=0;" edge="1" parent="1" source="FkLrA_r1JUW925ZRQbTF-26">
          <mxGeometry relative="1" as="geometry">
            <mxPoint x="750" y="706" as="sourcePoint" />
            <mxPoint x="505" y="705" as="targetPoint" />
            <Array as="points" />
          </mxGeometry>
        </mxCell>
      </root>
    </mxGraphModel>
  </diagram>
</mxfile>
